<svg width="169" height="169" viewBox="0 0 169 169" fill="none" xmlns="http://www.w3.org/2000/svg">
<path fill-rule="evenodd" clip-rule="evenodd" d="M124.876 151.413L162.337 86.5275C162.938 85.4865 162.938 84.204 162.337 83.163L124.876 18.2775C124.275 17.2365 123.164 16.5952 121.962 16.5952H47.0377C45.8356 16.5952 44.7249 17.2365 44.1239 18.2775L6.66278 83.163C6.06179 84.204 6.06179 85.4865 6.66278 86.5275L44.1244 151.413C44.7254 152.454 45.8361 153.095 47.0382 153.095H121.962C123.164 153.095 124.275 152.454 124.876 151.413ZM67.6096 131.674C65.1832 135.877 59.809 137.317 55.6057 134.89C51.4032 132.464 49.9638 127.09 52.3902 122.887L57.9393 113.276C60.3661 109.073 65.7396 107.632 69.9436 110.06C74.1461 112.486 75.5855 117.86 73.1587 122.063L67.6096 131.674ZM102.15 130.123C104.576 134.326 109.95 135.766 114.153 133.34C118.357 130.913 119.796 125.539 117.37 121.337L98.1279 88.0077C93.3457 79.7266 84.5103 74.6246 74.9462 74.6246L36.4626 74.625C31.6097 74.6249 27.6761 78.5589 27.6761 83.4118C27.6759 88.2647 31.6107 92.1987 36.4629 92.1984L74.9456 92.1994C78.2309 92.1982 81.2665 93.9508 82.9083 96.7949L102.15 130.123Z" fill="#88E02D"/>
</svg>
